<?xml version="1.0" encoding="UTF-8"?>
<svg xmlns="http://www.w3.org/2000/svg" viewBox="0 0 1805.04 595.93">
  <defs>
    <style>
      .cls-1 {
        fill: #000;
      }

      .cls-2 {
        fill: none;
      }
    </style>
  </defs>
  <path class="cls-1" d="M866.38,333.2c-8.08,7.45-20.73,19.06-36.33,33.21-60.38,54.74-79.56,70.36-93.41,80.45-12.18,8.86-20.87,13.65-45.26,31.52-15,10.99-30.83,20.74-48.66,26.71-11.95,4-23.65,3.82-35.19-1.49-7.24-3.33-9.06-6.15-8.37-14.13,1-11.61,6.38-20.7,16.09-27.2,12.94-8.66,27.12-14.81,41.46-20.66,14.5-5.92,28.78-12.22,41.82-21.06,10.68-7.24,16.8-16.99,17.55-30.04.31-5.3-1.52-9.92-3.72-14.48-7.05-14.6-16.92-27.45-25.51-41.09-5.91-9.38-11.55-18.93-17.57-28.23-15.85-24.47-18.88-50.83-12.35-78.81,7.12-30.53,22.63-55.64,47.73-74.57,7.17-5.41,15.09-8.99,24.56-7.29,11.68,2.1,17.94,9.06,20.1,20.84,3.41,18.57-5.38,31.81-17.98,43.48-9.7,8.98-19.51,17.87-29.68,26.3-4.36,3.61-4.84,7.51-4.03,12.46,2.17,13.19,7.37,25.22,13.47,36.97,13.53,26.06,30.48,50.12,44.06,76.14,1.5,2.87,3.61,3.3,6.53,2.36,8.36-2.69,15.51-7.62,22.59-12.5,38.69-26.67,74.27-57.06,107.25-90.51,11.7-11.86,23.04-24.07,34.95-35.72,23-22.49,46.99-43.61,76.09-58.34,25.2-12.76,51.15-12.38,77.7-6.89,7.84,1.62,13.82,6.11,18.04,13.13,4.22,7.01,7.85,14.24,10.53,21.96,3.58,10.29.98,20.3-1.28,30.32-4.3,19.06-9.88,37.85-12.71,57.23-2.14,14.68-2.28,29.37,3.59,43.35,12.09,28.82,30.72,38.49,59.64,32.17,26.09-5.7,48.27-19.28,69.18-35.1,25.99-19.67,49.12-42.41,71.23-66.34,7.32-7.93,9.93-16.06,10.69-26.38,3.23-43.77,4.88-87.61,7.02-131.44.83-17.09.64-34.26,4.39-51.11,2.17-9.77,5.74-19.04,10.34-27.84,3.9-7.47,10.3-12.66,18.14-15.7,13.18-5.12,27.94,6.03,28.65,21.4.49,10.63-2.55,20.71-5.38,30.69-6.53,23.05-8.73,46.74-11.24,70.39-4.54,42.82-6.21,85.89-11.5,128.66-2.6,21.04-4.06,42.21-6.23,63.31-1.32,12.81-4.08,25.45-4.76,38.34-.17,3.18-.89,6.51,1.22,9.49,2.71,3.84,4.66,3.99,7.32.09,8.83-12.93,17.13-26.25,26.44-38.82,27.35-36.89,55.75-72.91,91.13-102.67,15.18-12.76,31.5-23.78,50.69-29.74,11.03-3.42,21.47-3.16,30.68,5.14,3.9,3.52,6.34,7.69,8.07,12.56,6.88,19.37,9.17,39.62,11.81,59.82,2.92,22.29,4.43,44.8,10.67,66.55,1.72,5.98,4.03,11.67,7.33,16.97,3.63,5.82,8.78,8.27,15.63,8.1,28.35-.69,54.26-9.45,79.13-22.59,28.75-15.18,53.55-35.33,76.65-57.91,12.14-11.87,24.51-23.52,38.19-33.65,7.98-5.92,10.08-4.85,11.31,5.1.69,5.56-1.4,10.28-3.98,14.81-10.24,18-23.46,33.78-37.57,48.77-27.32,29.01-57.24,54.91-92.47,74.04-23.15,12.58-47.52,21.43-74.29,21.7-30.11.3-47.81-11.02-57.78-36.65-3.74-9.61-6.3-19.49-8.34-29.56-4.24-20.99-5.46-42.34-7.84-63.56-1.22-10.85-2.59-21.7-6.28-32.06-2.31-6.47-4.14-7.24-10.71-5.15-8.09,2.58-14.77,7.56-21.26,12.76-23.86,19.09-43.87,41.91-63.21,65.37-35.22,42.73-64.46,89.33-89.68,138.53-3.69,7.2-8,13.82-15.55,17.67-3.83,1.95-7.62,2.67-11.76,1.21-11-3.87-19.31-10.56-21.37-22.55-1.08-6.26.83-12.66,1.91-18.9,5.85-33.76,10.08-67.73,13.49-101.81,1.27-12.66,2.73-25.3,4.08-37.95.08-.74.01-1.49.01-3.31-9.01,10.3-17.86,19.31-27.32,27.73-19.38,17.24-37.75,35.66-59.24,50.42-19.23,13.2-39.61,23.91-62.76,28.38-23.51,4.54-46.11,3.37-66.42-11.3-14.35-10.37-24.31-23.8-29.1-41.71-2.89,2.92-5.38,5.44-7.87,7.96-21.55,21.87-42.74,44.18-68.19,61.69-19.76,13.6-41.22,23.59-64.87,28.5-16.43,3.41-29.98-.82-40.03-14.73-14.55-20.14-19.13-42.84-17.23-67.18.93-11.91,3.72-23.47,7.04-34.92.17-.74.21-1.13.12-1.16-.02,0-.05,0-.08.03ZM1061.92,228.59c-.14-6.61.23-14.04-2.39-21.06-1.59-4.27-4.17-8.25-9.21-8.4-12.93-.37-25.67.59-37.68,6.35-19.41,9.3-34.61,23.81-48.78,39.45-17.89,19.75-30.85,42.79-42.39,66.61-9.55,19.71-17.62,40.01-18.8,62.23-.47,8.86,1.14,17.53,6.08,25.26,2.56,4.01,6.18,5.59,10.85,5.06,6.65-.76,13.15-2.13,19.53-4.24,61.76-20.42,122.74-85.09,122.8-171.25Z"/>
  <path class="cls-1" d="M0,346.67c.5-43.39,12.23-85.12,30.46-125.32C72.61,128.46,168.66,44.57,269.99,16.88c20.14-5.5,40.26-5.64,60.33.17,7.18,2.08,13.29,6.01,18.42,11.52,9.1,9.77,16.32,20.71,21.53,33.01,2.89,6.82,3.25,13.55.2,20.36-9.18,20.44-20.11,39.89-33.97,57.51-7.95,10.11-18.26,15.99-31.91,14.18-14.37-1.9-23.8-17.65-18.35-31.09,3.69-9.11,9.81-16.51,16.68-23.31,8.39-8.32,15.62-17.48,21.88-27.52,2.17-3.47,1.18-4.64-1.81-6.12-14.43-7.15-29.42-8.14-44.71-3.68-44.59,12.99-83.92,35.25-117.78,67.13-25.39,23.91-49.51,48.89-66.81,79.55-22.09,39.14-36.98,80.79-42.28,125.57-2.12,17.93-1.6,35.83,3.61,53.33,7.74,25.97,25.68,40.61,51.81,45.22,28.17,4.98,55.51-.04,82.4-8.46,40.16-12.59,76.64-32.68,111.52-55.74,51.58-34.11,99.81-72.48,144.13-115.67,2.34-2.28,4.73-4.54,6.75-7.09,1.91-2.39,3.43-1.97,5.68-.48,8.56,5.69,11.85,14.11,9.08,24.77-3.83,14.71-13.17,26.1-23.23,36.86-21.82,23.35-46.92,43-72.06,62.53-40.82,31.7-84.1,59.49-131.51,80.44-27.2,12.02-55.22,21.55-84.8,25.69-26.93,3.77-53.72,3.56-79.82-5.07-38.17-12.62-60.58-39.62-70.01-78.12-3.59-14.66-4.78-29.59-4.93-45.71Z"/>
  <path class="cls-1" d="M485.15,405.03c-.3-41.93-2.69-83.84-2.28-125.77.26-26.43,1.83-52.82,9.45-78.39,3.56-11.96,8.3-23.4,18.46-31.56,6.62-5.32,14.3-7.06,22.53-5.92,11.45,1.58,18.02,12.01,14.55,23.11-1.65,5.27-3.63,10.5-6.1,15.42-6.69,13.3-8.47,27.56-9.2,42.13-2,39.81,1.07,79.59.83,119.38-.18,30.82-.13,61.7-3.91,92.35-3.76,30.45-9.16,60.57-22.49,88.6-11.43,24.03-28.33,42.33-55.06,48.98-23.67,5.88-46.27,1.15-67.95-9-12.04-5.63-23.2-12.64-32.24-22.56-3.66-4.02-6.84-8.34-5.08-14.47,1.07-3.72,3.06-5.08,6.85-4.12,14.53,3.66,29.03,7.44,43.85,9.73,11.47,1.77,23.04,2.97,34.56,1.13,18.82-3.01,30.85-14.61,37.72-31.83,6.5-16.31,9.28-33.56,11.62-50.83,2.99-22.01,4.05-44.17,3.88-66.38Z"/>
  <path class="cls-1" d="M562.51.06c13.4.81,23.7,4.56,31.79,13.31,6.82,7.38,8.09,15.15,3.83,24.17-4.38,9.29-9.55,18.14-15.71,26.38-6.5,8.7-13.47,10.23-23.19,5.17-3.38-1.76-6.22-4.22-8.5-7.23-6.29-8.32-11.76-17.19-16.81-26.31-1.93-3.48-2.25-7.17-1.27-10.9,3.2-12.19,19.87-25.66,29.86-24.59Z"/>
  <path class="cls-2" d="M1061.92,228.59c-.06,86.16-61.04,150.83-122.8,171.25-6.37,2.11-12.87,3.48-19.53,4.24-4.67.53-8.29-1.05-10.85-5.06-4.93-7.73-6.55-16.39-6.08-25.26,1.18-22.22,9.26-42.52,18.8-62.23,11.54-23.82,24.5-46.86,42.39-66.61,14.17-15.64,29.36-30.15,48.78-39.45,12.01-5.75,24.74-6.72,37.68-6.35,5.04.14,7.62,4.13,9.21,8.4,2.61,7.02,2.25,14.44,2.39,21.06Z"/>
</svg>
